<mxfile host="app.diagrams.net" modified="2022-06-16T16:19:43.567Z" agent="5.0 (Windows NT 10.0; Win64; x64) AppleWebKit/537.36 (KHTML, like Gecko) Chrome/102.0.0.0 Safari/537.36" etag="MRw4Cp8PRCFCjymK2dER" version="20.0.1" type="github">
  <diagram id="ZxXwK-TmG2tBLpuaiVWN" name="Page-1">
    <mxGraphModel dx="2875" dy="681" grid="1" gridSize="10" guides="1" tooltips="1" connect="1" arrows="1" fold="1" page="1" pageScale="1" pageWidth="827" pageHeight="1169" math="0" shadow="0">
      <root>
        <mxCell id="0" />
        <mxCell id="1" parent="0" />
        <mxCell id="CFgS4qSr50Q-mmnhQyEN-1" value="&lt;p style=&quot;margin:0px;margin-top:4px;text-align:center;&quot;&gt;&lt;i&gt;&amp;lt;&amp;lt;Interface&amp;gt;&amp;gt;&lt;/i&gt;&lt;br&gt;&lt;b&gt;ObservableInterface&lt;/b&gt;&lt;/p&gt;&lt;hr size=&quot;1&quot;&gt;&lt;p style=&quot;margin:0px;margin-left:4px;&quot;&gt;+ registerObserver()&amp;nbsp;&lt;br&gt;+ removeObserver()&lt;/p&gt;&lt;p style=&quot;margin:0px;margin-left:4px;&quot;&gt;+ notifyObservers()&lt;/p&gt;" style="verticalAlign=top;align=left;overflow=fill;fontSize=12;fontFamily=Helvetica;html=1;" parent="1" vertex="1">
          <mxGeometry x="-727.5" y="60" width="190" height="140" as="geometry" />
        </mxCell>
        <mxCell id="CFgS4qSr50Q-mmnhQyEN-6" style="edgeStyle=orthogonalEdgeStyle;rounded=0;orthogonalLoop=1;jettySize=auto;html=1;entryX=0.5;entryY=1;entryDx=0;entryDy=0;dashed=1;endArrow=block;endFill=0;" parent="1" source="CFgS4qSr50Q-mmnhQyEN-2" target="CFgS4qSr50Q-mmnhQyEN-1" edge="1">
          <mxGeometry relative="1" as="geometry" />
        </mxCell>
        <mxCell id="CFgS4qSr50Q-mmnhQyEN-2" value="Model" style="swimlane;fontStyle=1;align=center;verticalAlign=top;childLayout=stackLayout;horizontal=1;startSize=26;horizontalStack=0;resizeParent=1;resizeParentMax=0;resizeLast=0;collapsible=1;marginBottom=0;" parent="1" vertex="1">
          <mxGeometry x="-725" y="270" width="185" height="180" as="geometry" />
        </mxCell>
        <mxCell id="CFgS4qSr50Q-mmnhQyEN-3" value="- shapes: ShapeInterface[]" style="text;strokeColor=none;fillColor=none;align=left;verticalAlign=top;spacingLeft=4;spacingRight=4;overflow=hidden;rotatable=0;points=[[0,0.5],[1,0.5]];portConstraint=eastwest;" parent="CFgS4qSr50Q-mmnhQyEN-2" vertex="1">
          <mxGeometry y="26" width="185" height="26" as="geometry" />
        </mxCell>
        <mxCell id="CFgS4qSr50Q-mmnhQyEN-4" value="" style="line;strokeWidth=1;fillColor=none;align=left;verticalAlign=middle;spacingTop=-1;spacingLeft=3;spacingRight=3;rotatable=0;labelPosition=right;points=[];portConstraint=eastwest;" parent="CFgS4qSr50Q-mmnhQyEN-2" vertex="1">
          <mxGeometry y="52" width="185" height="8" as="geometry" />
        </mxCell>
        <mxCell id="CFgS4qSr50Q-mmnhQyEN-5" value="+ registerObserver()Â &#xa;+ removeObserver()&#xa;+ notifyObservers()&#xa;+ moveShape(shapeID)&#xa;+ resizeShape(shapeId, frame)&#xa;+ addShape(shapeType)&#xa;+ removeShape(shapeId)" style="text;strokeColor=none;fillColor=none;align=left;verticalAlign=top;spacingLeft=4;spacingRight=4;overflow=hidden;rotatable=0;points=[[0,0.5],[1,0.5]];portConstraint=eastwest;" parent="CFgS4qSr50Q-mmnhQyEN-2" vertex="1">
          <mxGeometry y="60" width="185" height="120" as="geometry" />
        </mxCell>
        <mxCell id="CFgS4qSr50Q-mmnhQyEN-7" value="&lt;p style=&quot;margin:0px;margin-top:4px;text-align:center;&quot;&gt;&lt;i&gt;&amp;lt;&amp;lt;Interface&amp;gt;&amp;gt;&lt;/i&gt;&lt;br&gt;&lt;b&gt;ObserverInterface&lt;/b&gt;&lt;/p&gt;&lt;hr size=&quot;1&quot;&gt;&lt;p style=&quot;margin:0px;margin-left:4px;&quot;&gt;+ update()&amp;nbsp;&lt;/p&gt;" style="verticalAlign=top;align=left;overflow=fill;fontSize=12;fontFamily=Helvetica;html=1;" parent="1" vertex="1">
          <mxGeometry x="-440" y="60" width="190" height="70" as="geometry" />
        </mxCell>
        <mxCell id="CFgS4qSr50Q-mmnhQyEN-12" style="edgeStyle=orthogonalEdgeStyle;rounded=0;orthogonalLoop=1;jettySize=auto;html=1;entryX=0.473;entryY=1.012;entryDx=0;entryDy=0;entryPerimeter=0;dashed=1;endArrow=block;endFill=0;" parent="1" source="CFgS4qSr50Q-mmnhQyEN-8" target="CFgS4qSr50Q-mmnhQyEN-7" edge="1">
          <mxGeometry relative="1" as="geometry" />
        </mxCell>
        <mxCell id="CFgS4qSr50Q-mmnhQyEN-8" value="View" style="swimlane;fontStyle=1;align=center;verticalAlign=top;childLayout=stackLayout;horizontal=1;startSize=26;horizontalStack=0;resizeParent=1;resizeParentMax=0;resizeLast=0;collapsible=1;marginBottom=0;" parent="1" vertex="1">
          <mxGeometry x="-430" y="280" width="160" height="110" as="geometry" />
        </mxCell>
        <mxCell id="CFgS4qSr50Q-mmnhQyEN-9" value="+ model: Model&#xa;+ controller: Controller" style="text;strokeColor=none;fillColor=none;align=left;verticalAlign=top;spacingLeft=4;spacingRight=4;overflow=hidden;rotatable=0;points=[[0,0.5],[1,0.5]];portConstraint=eastwest;" parent="CFgS4qSr50Q-mmnhQyEN-8" vertex="1">
          <mxGeometry y="26" width="160" height="44" as="geometry" />
        </mxCell>
        <mxCell id="CFgS4qSr50Q-mmnhQyEN-10" value="" style="line;strokeWidth=1;fillColor=none;align=left;verticalAlign=middle;spacingTop=-1;spacingLeft=3;spacingRight=3;rotatable=0;labelPosition=right;points=[];portConstraint=eastwest;" parent="CFgS4qSr50Q-mmnhQyEN-8" vertex="1">
          <mxGeometry y="70" width="160" height="8" as="geometry" />
        </mxCell>
        <mxCell id="CFgS4qSr50Q-mmnhQyEN-11" value="+ update()" style="text;strokeColor=none;fillColor=none;align=left;verticalAlign=top;spacingLeft=4;spacingRight=4;overflow=hidden;rotatable=0;points=[[0,0.5],[1,0.5]];portConstraint=eastwest;" parent="CFgS4qSr50Q-mmnhQyEN-8" vertex="1">
          <mxGeometry y="78" width="160" height="32" as="geometry" />
        </mxCell>
        <mxCell id="CFgS4qSr50Q-mmnhQyEN-13" style="edgeStyle=orthogonalEdgeStyle;rounded=0;orthogonalLoop=1;jettySize=auto;html=1;endArrow=diamondThin;endFill=0;exitX=0.99;exitY=0.674;exitDx=0;exitDy=0;exitPerimeter=0;" parent="1" source="CFgS4qSr50Q-mmnhQyEN-4" target="CFgS4qSr50Q-mmnhQyEN-9" edge="1">
          <mxGeometry relative="1" as="geometry" />
        </mxCell>
        <mxCell id="CFgS4qSr50Q-mmnhQyEN-14" value="Controller" style="swimlane;fontStyle=1;align=center;verticalAlign=top;childLayout=stackLayout;horizontal=1;startSize=26;horizontalStack=0;resizeParent=1;resizeParentMax=0;resizeLast=0;collapsible=1;marginBottom=0;" parent="1" vertex="1">
          <mxGeometry x="-160" y="280" width="170" height="140" as="geometry" />
        </mxCell>
        <mxCell id="CFgS4qSr50Q-mmnhQyEN-15" value="+ model: Model" style="text;strokeColor=none;fillColor=none;align=left;verticalAlign=top;spacingLeft=4;spacingRight=4;overflow=hidden;rotatable=0;points=[[0,0.5],[1,0.5]];portConstraint=eastwest;" parent="CFgS4qSr50Q-mmnhQyEN-14" vertex="1">
          <mxGeometry y="26" width="170" height="24" as="geometry" />
        </mxCell>
        <mxCell id="CFgS4qSr50Q-mmnhQyEN-16" value="" style="line;strokeWidth=1;fillColor=none;align=left;verticalAlign=middle;spacingTop=-1;spacingLeft=3;spacingRight=3;rotatable=0;labelPosition=right;points=[];portConstraint=eastwest;" parent="CFgS4qSr50Q-mmnhQyEN-14" vertex="1">
          <mxGeometry y="50" width="170" height="8" as="geometry" />
        </mxCell>
        <mxCell id="CFgS4qSr50Q-mmnhQyEN-17" value="+ handleMouseEvent()&#xa;+ addShape(shapeType)&#xa;+ handleKeyEvent()" style="text;strokeColor=none;fillColor=none;align=left;verticalAlign=top;spacingLeft=4;spacingRight=4;overflow=hidden;rotatable=0;points=[[0,0.5],[1,0.5]];portConstraint=eastwest;" parent="CFgS4qSr50Q-mmnhQyEN-14" vertex="1">
          <mxGeometry y="58" width="170" height="82" as="geometry" />
        </mxCell>
        <mxCell id="CFgS4qSr50Q-mmnhQyEN-18" style="edgeStyle=orthogonalEdgeStyle;rounded=0;orthogonalLoop=1;jettySize=auto;html=1;endArrow=diamondThin;endFill=0;" parent="1" target="CFgS4qSr50Q-mmnhQyEN-9" edge="1">
          <mxGeometry relative="1" as="geometry">
            <mxPoint x="-160" y="327.9999999999999" as="sourcePoint" />
          </mxGeometry>
        </mxCell>
        <mxCell id="CFgS4qSr50Q-mmnhQyEN-19" style="edgeStyle=orthogonalEdgeStyle;rounded=0;orthogonalLoop=1;jettySize=auto;html=1;endArrow=diamondThin;endFill=0;exitX=0.653;exitY=1.009;exitDx=0;exitDy=0;exitPerimeter=0;" parent="1" source="CFgS4qSr50Q-mmnhQyEN-5" edge="1">
          <mxGeometry relative="1" as="geometry">
            <mxPoint x="-560" y="410" as="sourcePoint" />
            <mxPoint x="-120" y="420" as="targetPoint" />
            <Array as="points">
              <mxPoint x="-604" y="480" />
              <mxPoint x="-120" y="480" />
            </Array>
          </mxGeometry>
        </mxCell>
        <mxCell id="CFgS4qSr50Q-mmnhQyEN-20" value="ShapeInterface" style="swimlane;fontStyle=1;align=center;verticalAlign=top;childLayout=stackLayout;horizontal=1;startSize=26;horizontalStack=0;resizeParent=1;resizeParentMax=0;resizeLast=0;collapsible=1;marginBottom=0;" parent="1" vertex="1">
          <mxGeometry x="-1170" y="280" width="160" height="90" as="geometry" />
        </mxCell>
        <mxCell id="CFgS4qSr50Q-mmnhQyEN-22" value="" style="line;strokeWidth=1;fillColor=none;align=left;verticalAlign=middle;spacingTop=-1;spacingLeft=3;spacingRight=3;rotatable=0;labelPosition=right;points=[];portConstraint=eastwest;" parent="CFgS4qSr50Q-mmnhQyEN-20" vertex="1">
          <mxGeometry y="26" width="160" height="8" as="geometry" />
        </mxCell>
        <mxCell id="CFgS4qSr50Q-mmnhQyEN-23" value="+ getFrame()&#xa;+ setFrame()" style="text;strokeColor=none;fillColor=none;align=left;verticalAlign=top;spacingLeft=4;spacingRight=4;overflow=hidden;rotatable=0;points=[[0,0.5],[1,0.5]];portConstraint=eastwest;" parent="CFgS4qSr50Q-mmnhQyEN-20" vertex="1">
          <mxGeometry y="34" width="160" height="56" as="geometry" />
        </mxCell>
        <mxCell id="CFgS4qSr50Q-mmnhQyEN-34" style="edgeStyle=orthogonalEdgeStyle;rounded=0;orthogonalLoop=1;jettySize=auto;html=1;entryX=0.213;entryY=1.018;entryDx=0;entryDy=0;entryPerimeter=0;endArrow=block;endFill=0;dashed=1;" parent="1" source="CFgS4qSr50Q-mmnhQyEN-24" target="CFgS4qSr50Q-mmnhQyEN-23" edge="1">
          <mxGeometry relative="1" as="geometry" />
        </mxCell>
        <mxCell id="CFgS4qSr50Q-mmnhQyEN-24" value="Rectangle" style="swimlane;fontStyle=1;align=center;verticalAlign=top;childLayout=stackLayout;horizontal=1;startSize=26;horizontalStack=0;resizeParent=1;resizeParentMax=0;resizeLast=0;collapsible=1;marginBottom=0;" parent="1" vertex="1">
          <mxGeometry x="-1340" y="410" width="160" height="84" as="geometry" />
        </mxCell>
        <mxCell id="CFgS4qSr50Q-mmnhQyEN-26" value="" style="line;strokeWidth=1;fillColor=none;align=left;verticalAlign=middle;spacingTop=-1;spacingLeft=3;spacingRight=3;rotatable=0;labelPosition=right;points=[];portConstraint=eastwest;" parent="CFgS4qSr50Q-mmnhQyEN-24" vertex="1">
          <mxGeometry y="26" width="160" height="8" as="geometry" />
        </mxCell>
        <mxCell id="CFgS4qSr50Q-mmnhQyEN-27" value="+ getFrame()&#xa;+ setFrame()" style="text;strokeColor=none;fillColor=none;align=left;verticalAlign=top;spacingLeft=4;spacingRight=4;overflow=hidden;rotatable=0;points=[[0,0.5],[1,0.5]];portConstraint=eastwest;" parent="CFgS4qSr50Q-mmnhQyEN-24" vertex="1">
          <mxGeometry y="34" width="160" height="50" as="geometry" />
        </mxCell>
        <mxCell id="CFgS4qSr50Q-mmnhQyEN-35" style="edgeStyle=orthogonalEdgeStyle;rounded=0;orthogonalLoop=1;jettySize=auto;html=1;dashed=1;endArrow=block;endFill=0;" parent="1" source="CFgS4qSr50Q-mmnhQyEN-28" edge="1">
          <mxGeometry relative="1" as="geometry">
            <mxPoint x="-1090" y="370" as="targetPoint" />
          </mxGeometry>
        </mxCell>
        <mxCell id="CFgS4qSr50Q-mmnhQyEN-28" value="Triangle" style="swimlane;fontStyle=1;align=center;verticalAlign=top;childLayout=stackLayout;horizontal=1;startSize=26;horizontalStack=0;resizeParent=1;resizeParentMax=0;resizeLast=0;collapsible=1;marginBottom=0;" parent="1" vertex="1">
          <mxGeometry x="-1170" y="410" width="160" height="84" as="geometry" />
        </mxCell>
        <mxCell id="CFgS4qSr50Q-mmnhQyEN-29" value="" style="line;strokeWidth=1;fillColor=none;align=left;verticalAlign=middle;spacingTop=-1;spacingLeft=3;spacingRight=3;rotatable=0;labelPosition=right;points=[];portConstraint=eastwest;" parent="CFgS4qSr50Q-mmnhQyEN-28" vertex="1">
          <mxGeometry y="26" width="160" height="8" as="geometry" />
        </mxCell>
        <mxCell id="CFgS4qSr50Q-mmnhQyEN-30" value="+ getFrame()&#xa;+ setFrame()" style="text;strokeColor=none;fillColor=none;align=left;verticalAlign=top;spacingLeft=4;spacingRight=4;overflow=hidden;rotatable=0;points=[[0,0.5],[1,0.5]];portConstraint=eastwest;" parent="CFgS4qSr50Q-mmnhQyEN-28" vertex="1">
          <mxGeometry y="34" width="160" height="50" as="geometry" />
        </mxCell>
        <mxCell id="CFgS4qSr50Q-mmnhQyEN-36" style="edgeStyle=orthogonalEdgeStyle;rounded=0;orthogonalLoop=1;jettySize=auto;html=1;entryX=0.769;entryY=1.018;entryDx=0;entryDy=0;entryPerimeter=0;dashed=1;endArrow=block;endFill=0;" parent="1" source="CFgS4qSr50Q-mmnhQyEN-31" target="CFgS4qSr50Q-mmnhQyEN-23" edge="1">
          <mxGeometry relative="1" as="geometry" />
        </mxCell>
        <mxCell id="CFgS4qSr50Q-mmnhQyEN-31" value="Ellipse" style="swimlane;fontStyle=1;align=center;verticalAlign=top;childLayout=stackLayout;horizontal=1;startSize=26;horizontalStack=0;resizeParent=1;resizeParentMax=0;resizeLast=0;collapsible=1;marginBottom=0;" parent="1" vertex="1">
          <mxGeometry x="-1000" y="410" width="160" height="84" as="geometry" />
        </mxCell>
        <mxCell id="CFgS4qSr50Q-mmnhQyEN-32" value="" style="line;strokeWidth=1;fillColor=none;align=left;verticalAlign=middle;spacingTop=-1;spacingLeft=3;spacingRight=3;rotatable=0;labelPosition=right;points=[];portConstraint=eastwest;" parent="CFgS4qSr50Q-mmnhQyEN-31" vertex="1">
          <mxGeometry y="26" width="160" height="8" as="geometry" />
        </mxCell>
        <mxCell id="CFgS4qSr50Q-mmnhQyEN-33" value="+ getFrame()&#xa;+ setFrame()" style="text;strokeColor=none;fillColor=none;align=left;verticalAlign=top;spacingLeft=4;spacingRight=4;overflow=hidden;rotatable=0;points=[[0,0.5],[1,0.5]];portConstraint=eastwest;" parent="CFgS4qSr50Q-mmnhQyEN-31" vertex="1">
          <mxGeometry y="34" width="160" height="50" as="geometry" />
        </mxCell>
        <mxCell id="CFgS4qSr50Q-mmnhQyEN-37" style="edgeStyle=orthogonalEdgeStyle;rounded=0;orthogonalLoop=1;jettySize=auto;html=1;dashed=1;endArrow=open;endFill=0;" parent="1" source="CFgS4qSr50Q-mmnhQyEN-3" target="CFgS4qSr50Q-mmnhQyEN-22" edge="1">
          <mxGeometry relative="1" as="geometry" />
        </mxCell>
        <mxCell id="LktqXfWsyEhTFeiUZar9-1" style="edgeStyle=orthogonalEdgeStyle;rounded=0;orthogonalLoop=1;jettySize=auto;html=1;entryX=1;entryY=0.5;entryDx=0;entryDy=0;dashed=1;endArrow=open;endFill=0;" edge="1" parent="1" source="CFgS4qSr50Q-mmnhQyEN-11" target="CFgS4qSr50Q-mmnhQyEN-23">
          <mxGeometry relative="1" as="geometry">
            <Array as="points">
              <mxPoint x="-350" y="510" />
              <mxPoint x="-800" y="510" />
              <mxPoint x="-800" y="342" />
            </Array>
          </mxGeometry>
        </mxCell>
        <mxCell id="LktqXfWsyEhTFeiUZar9-2" value="model" style="shape=module;align=left;spacingLeft=20;align=center;verticalAlign=top;" vertex="1" parent="1">
          <mxGeometry x="-1340" y="560" width="640" height="500" as="geometry" />
        </mxCell>
        <mxCell id="LktqXfWsyEhTFeiUZar9-3" value="view" style="shape=module;align=left;spacingLeft=20;align=center;verticalAlign=top;" vertex="1" parent="1">
          <mxGeometry x="-600" y="680" width="578" height="330" as="geometry" />
        </mxCell>
        <mxCell id="LktqXfWsyEhTFeiUZar9-4" value="Shapes" style="swimlane;fontStyle=1;align=center;verticalAlign=top;childLayout=stackLayout;horizontal=1;startSize=26;horizontalStack=0;resizeParent=1;resizeParentMax=0;resizeLast=0;collapsible=1;marginBottom=0;" vertex="1" parent="1">
          <mxGeometry x="-1290" y="800" width="210" height="52" as="geometry" />
        </mxCell>
        <mxCell id="LktqXfWsyEhTFeiUZar9-5" value="+ addObserver(o: ShapesObserver)" style="text;strokeColor=none;fillColor=none;align=left;verticalAlign=top;spacingLeft=4;spacingRight=4;overflow=hidden;rotatable=0;points=[[0,0.5],[1,0.5]];portConstraint=eastwest;" vertex="1" parent="LktqXfWsyEhTFeiUZar9-4">
          <mxGeometry y="26" width="210" height="26" as="geometry" />
        </mxCell>
        <mxCell id="LktqXfWsyEhTFeiUZar9-8" value="interface&#xa;ShapesObserver" style="swimlane;fontStyle=1;align=center;verticalAlign=top;childLayout=stackLayout;horizontal=1;startSize=40;horizontalStack=0;resizeParent=1;resizeParentMax=0;resizeLast=0;collapsible=1;marginBottom=0;" vertex="1" parent="1">
          <mxGeometry x="-1120" y="930" width="230" height="100" as="geometry" />
        </mxCell>
        <mxCell id="LktqXfWsyEhTFeiUZar9-9" value="onShapeAdded(index, shape:Shape)" style="text;strokeColor=none;fillColor=none;align=left;verticalAlign=top;spacingLeft=4;spacingRight=4;overflow=hidden;rotatable=0;points=[[0,0.5],[1,0.5]];portConstraint=eastwest;" vertex="1" parent="LktqXfWsyEhTFeiUZar9-8">
          <mxGeometry y="40" width="230" height="26" as="geometry" />
        </mxCell>
        <mxCell id="LktqXfWsyEhTFeiUZar9-10" value="" style="line;strokeWidth=1;fillColor=none;align=left;verticalAlign=middle;spacingTop=-1;spacingLeft=3;spacingRight=3;rotatable=0;labelPosition=right;points=[];portConstraint=eastwest;" vertex="1" parent="LktqXfWsyEhTFeiUZar9-8">
          <mxGeometry y="66" width="230" height="8" as="geometry" />
        </mxCell>
        <mxCell id="LktqXfWsyEhTFeiUZar9-11" value="+ method(type): type" style="text;strokeColor=none;fillColor=none;align=left;verticalAlign=top;spacingLeft=4;spacingRight=4;overflow=hidden;rotatable=0;points=[[0,0.5],[1,0.5]];portConstraint=eastwest;" vertex="1" parent="LktqXfWsyEhTFeiUZar9-8">
          <mxGeometry y="74" width="230" height="26" as="geometry" />
        </mxCell>
        <mxCell id="LktqXfWsyEhTFeiUZar9-12" value="Shape" style="swimlane;fontStyle=1;align=center;verticalAlign=top;childLayout=stackLayout;horizontal=1;startSize=26;horizontalStack=0;resizeParent=1;resizeParentMax=0;resizeLast=0;collapsible=1;marginBottom=0;" vertex="1" parent="1">
          <mxGeometry x="-940" y="783" width="160" height="86" as="geometry" />
        </mxCell>
        <mxCell id="LktqXfWsyEhTFeiUZar9-13" value="+ field: type" style="text;strokeColor=none;fillColor=none;align=left;verticalAlign=top;spacingLeft=4;spacingRight=4;overflow=hidden;rotatable=0;points=[[0,0.5],[1,0.5]];portConstraint=eastwest;" vertex="1" parent="LktqXfWsyEhTFeiUZar9-12">
          <mxGeometry y="26" width="160" height="26" as="geometry" />
        </mxCell>
        <mxCell id="LktqXfWsyEhTFeiUZar9-14" value="" style="line;strokeWidth=1;fillColor=none;align=left;verticalAlign=middle;spacingTop=-1;spacingLeft=3;spacingRight=3;rotatable=0;labelPosition=right;points=[];portConstraint=eastwest;" vertex="1" parent="LktqXfWsyEhTFeiUZar9-12">
          <mxGeometry y="52" width="160" height="8" as="geometry" />
        </mxCell>
        <mxCell id="LktqXfWsyEhTFeiUZar9-15" value="+ method(type): type" style="text;strokeColor=none;fillColor=none;align=left;verticalAlign=top;spacingLeft=4;spacingRight=4;overflow=hidden;rotatable=0;points=[[0,0.5],[1,0.5]];portConstraint=eastwest;" vertex="1" parent="LktqXfWsyEhTFeiUZar9-12">
          <mxGeometry y="60" width="160" height="26" as="geometry" />
        </mxCell>
        <mxCell id="LktqXfWsyEhTFeiUZar9-16" value="" style="endArrow=diamondThin;endFill=1;endSize=24;html=1;rounded=0;" edge="1" parent="1" source="LktqXfWsyEhTFeiUZar9-8" target="LktqXfWsyEhTFeiUZar9-4">
          <mxGeometry width="160" relative="1" as="geometry">
            <mxPoint x="-1180" y="970" as="sourcePoint" />
            <mxPoint x="-1020" y="970" as="targetPoint" />
          </mxGeometry>
        </mxCell>
        <mxCell id="LktqXfWsyEhTFeiUZar9-17" value="Use" style="endArrow=open;endSize=12;dashed=1;html=1;rounded=0;" edge="1" parent="1" source="LktqXfWsyEhTFeiUZar9-8" target="LktqXfWsyEhTFeiUZar9-12">
          <mxGeometry width="160" relative="1" as="geometry">
            <mxPoint x="-860" y="860" as="sourcePoint" />
            <mxPoint x="-700" y="860" as="targetPoint" />
          </mxGeometry>
        </mxCell>
        <mxCell id="LktqXfWsyEhTFeiUZar9-18" value="" style="endArrow=diamondThin;endFill=1;endSize=24;html=1;rounded=0;" edge="1" parent="1" source="LktqXfWsyEhTFeiUZar9-12" target="LktqXfWsyEhTFeiUZar9-4">
          <mxGeometry width="160" relative="1" as="geometry">
            <mxPoint x="-1180" y="970" as="sourcePoint" />
            <mxPoint x="-1020" y="970" as="targetPoint" />
          </mxGeometry>
        </mxCell>
        <mxCell id="LktqXfWsyEhTFeiUZar9-19" value="Rectangle" style="swimlane;fontStyle=1;align=center;verticalAlign=top;childLayout=stackLayout;horizontal=1;startSize=26;horizontalStack=0;resizeParent=1;resizeParentMax=0;resizeLast=0;collapsible=1;marginBottom=0;" vertex="1" parent="1">
          <mxGeometry x="-1321" y="100" width="160" height="84" as="geometry" />
        </mxCell>
        <mxCell id="LktqXfWsyEhTFeiUZar9-20" value="" style="line;strokeWidth=1;fillColor=none;align=left;verticalAlign=middle;spacingTop=-1;spacingLeft=3;spacingRight=3;rotatable=0;labelPosition=right;points=[];portConstraint=eastwest;" vertex="1" parent="LktqXfWsyEhTFeiUZar9-19">
          <mxGeometry y="26" width="160" height="8" as="geometry" />
        </mxCell>
        <mxCell id="LktqXfWsyEhTFeiUZar9-21" value="+ getFrame()&#xa;+ setFrame()" style="text;strokeColor=none;fillColor=none;align=left;verticalAlign=top;spacingLeft=4;spacingRight=4;overflow=hidden;rotatable=0;points=[[0,0.5],[1,0.5]];portConstraint=eastwest;" vertex="1" parent="LktqXfWsyEhTFeiUZar9-19">
          <mxGeometry y="34" width="160" height="50" as="geometry" />
        </mxCell>
        <mxCell id="LktqXfWsyEhTFeiUZar9-22" value="interface&#xa;ShapeObserver" style="swimlane;fontStyle=1;align=center;verticalAlign=top;childLayout=stackLayout;horizontal=1;startSize=40;horizontalStack=0;resizeParent=1;resizeParentMax=0;resizeLast=0;collapsible=1;marginBottom=0;" vertex="1" parent="1">
          <mxGeometry x="-1110" y="620" width="230" height="74" as="geometry" />
        </mxCell>
        <mxCell id="LktqXfWsyEhTFeiUZar9-23" value="onFrameChanged()" style="text;strokeColor=none;fillColor=none;align=left;verticalAlign=top;spacingLeft=4;spacingRight=4;overflow=hidden;rotatable=0;points=[[0,0.5],[1,0.5]];portConstraint=eastwest;" vertex="1" parent="LktqXfWsyEhTFeiUZar9-22">
          <mxGeometry y="40" width="230" height="26" as="geometry" />
        </mxCell>
        <mxCell id="LktqXfWsyEhTFeiUZar9-24" value="" style="line;strokeWidth=1;fillColor=none;align=left;verticalAlign=middle;spacingTop=-1;spacingLeft=3;spacingRight=3;rotatable=0;labelPosition=right;points=[];portConstraint=eastwest;" vertex="1" parent="LktqXfWsyEhTFeiUZar9-22">
          <mxGeometry y="66" width="230" height="8" as="geometry" />
        </mxCell>
      </root>
    </mxGraphModel>
  </diagram>
</mxfile>
